<?xml version="1.0" encoding="utf-8"?>
<!-- Uploaded to: SVG Repo, www.svgrepo.com, Generator: SVG Repo Mixer Tools -->
<svg width="800px" height="800px" viewBox="0 0 1024 1024" class="icon"  version="1.1" xmlns="http://www.w3.org/2000/svg"><path d="M520.51 506.876m-226.291 0a226.291 226.291 0 1 0 452.582 0 226.291 226.291 0 1 0-452.582 0Z" fill="#228E9D" /><path d="M283.154 783.518c0 12.077 9.791 21.866 21.867 21.866h20.95-20.95c-12.077 0-21.867 9.791-21.867 21.867v20.95-20.95c0-12.077-9.79-21.867-21.866-21.867h-20.951 20.951c12.076 0 21.866-9.789 21.866-21.866v-20.951 20.951z" fill="#ED8F27" /><path d="M294.249 848.2h-22.194v-20.951c0-5.939-4.826-10.765-10.765-10.765h-20.951V794.29h20.951c5.939 0 10.765-4.833 10.765-10.772v-20.951h22.194v20.951c0 5.939 4.833 10.772 10.772 10.772v22.194c-5.938 0-10.772 4.826-10.772 10.765V848.2z m31.723-31.716H305.02V794.29h20.952v22.194z" fill="#ED8F27" /><path d="M893.42 584.46c0 8.085 6.554 14.639 14.639 14.639h14.026-14.026c-8.085 0-14.639 6.554-14.639 14.64v14.026-14.026c0-8.086-6.555-14.64-14.64-14.64h-14.026 14.026c8.085 0 14.64-6.554 14.64-14.639v-14.027 14.027z" fill="#ED8F27" /><path d="M900.848 627.766h-14.859v-14.027c0-3.976-3.231-7.211-7.207-7.211h-14.027v-14.859h14.027a7.213 7.213 0 0 0 7.207-7.207v-14.027h14.859v14.027c0 3.976 3.236 7.207 7.212 7.207v14.859c-3.976 0-7.212 3.236-7.212 7.211v14.027z m21.238-21.239h-14.027v-14.859h14.027v14.859z" fill="#ED8F27" /><path d="M798.898 630.64c0 12.076 9.79 21.866 21.866 21.866h20.95-20.95c-12.077 0-21.866 9.791-21.866 21.867v20.95-20.95c0-12.077-9.791-21.867-21.867-21.867H756.08h20.951c12.076 0.001 21.867-9.789 21.867-21.866v-20.95 20.95z" fill="#ED8F27" /><path d="M809.996 695.324h-22.194v-20.952c0-5.938-4.833-10.764-10.772-10.764h-20.951v-22.194h20.951c5.939 0 10.772-4.834 10.772-10.772V609.69h22.194v20.951c0 5.938 4.826 10.772 10.765 10.772v22.194c-5.939 0-10.765 4.826-10.765 10.764v20.953z m31.717-31.717h-20.951v-22.194h20.951v22.194z" fill="#ED8F27" /><path d="M717.137 779.358c0 8.247 6.686 14.932 14.932 14.932h14.306-14.305c-8.247 0-14.932 6.685-14.932 14.932v14.307-14.307c0-8.247-6.685-14.932-14.932-14.932H687.9h14.306c8.246 0.001 14.931-6.684 14.931-14.932v-14.306 14.306z" fill="#ED8F27" /><path d="M724.715 823.531H709.56v-14.307c0-4.055-3.3-7.356-7.356-7.356h-14.307v-15.156h14.307c4.055 0 7.356-3.3 7.356-7.356V765.05h15.156v14.307c0 4.056 3.3 7.356 7.356 7.356v15.156c-4.056 0-7.356 3.3-7.356 7.356v14.306z m21.663-21.663h-14.307v-15.156h14.307v15.156z" fill="#ED8F27" /><path d="M149.568 408.566c0 12.077 9.79 21.866 21.866 21.866h20.95-20.95c-12.077 0-21.866 9.791-21.866 21.867v20.95V452.3c0-12.077-9.791-21.867-21.867-21.867h-20.95 20.95c12.077 0 21.867-9.79 21.867-21.867v-20.951 20.951z" fill="#ED8F27" /><path d="M160.667 473.253h-22.194v-20.951c0-5.938-4.834-10.772-10.772-10.772H106.75v-22.194h20.951c5.939 0 10.772-4.834 10.772-10.772v-20.951h22.194v20.951c0 5.938 4.826 10.772 10.764 10.772v22.194c-5.938 0-10.764 4.833-10.764 10.772v20.951z m31.716-31.723h-20.952v-22.194h20.952v22.194z" fill="#ED8F27" /><path d="M597.466 738.507c-128.35 42.653-267.476-27.068-310.129-155.419-42.653-128.351 27.069-267.476 155.42-310.129 128.351-42.653 267.475 27.069 310.129 155.42 42.652 128.35-27.07 267.475-155.42 310.128zM449.756 294.02c-116.737 38.793-180.151 165.331-141.357 282.069 38.793 116.737 165.332 180.15 282.068 141.357 116.737-38.793 180.15-165.331 141.357-282.068C693.03 318.64 566.492 255.226 449.756 294.02z" fill="#300604" /><path d="M302.798 707.113c-64.336 21.38-115.256 27.278-129.836 2.447-20.837-35.488 49.769-102.514 112.678-152.494l13.802 17.385c-100.734 80.029-111.64 116.558-107.343 123.877 13.766 23.442 161.564-17.505 361.801-135.062 89.557-52.586 169.606-108.886 225.403-158.528 63.697-56.682 72.87-84.702 68.82-91.601-4.337-7.39-41.966-15.654-162.398 34.173l-8.489-20.505c75.104-31.087 169.055-60.626 190.024-24.9 14.086 23.99-9.858 63.047-73.203 119.415-56.85 50.577-138.148 107.788-228.924 161.083-77.951 45.774-180.893 97.646-262.335 124.71z" fill="#300604" /><path d="M237.831 332.952m-36.355 0a36.355 36.355 0 1 0 72.71 0 36.355 36.355 0 1 0-72.71 0Z" fill="#B12800" /><path d="M237.835 380.403c-26.168 0-47.459-21.283-47.459-47.451s21.291-47.452 47.459-47.452c26.168 0 47.451 21.284 47.451 47.452s-21.283 47.451-47.451 47.451z m0-72.708c-13.93 0-25.265 11.329-25.265 25.258 0 13.929 11.335 25.257 25.265 25.257 13.929 0 25.257-11.328 25.257-25.257 0-13.93-11.328-25.258-25.257-25.258z" fill="#300604" /><path d="M642.976 306.393c10.31-20.227 12.853-44.4 5.128-67.646-15.313-46.079-65.082-71.022-111.162-55.708-39.891 13.257-63.885 52.339-59.691 92.492 58.548-10.975 117.368 1.09 165.725 30.862z" fill="#FCE3C3" /><path d="M647.405 322.146l-10.25-6.308c-47.368-29.161-103.428-39.598-157.859-29.397l-11.825 2.217-1.253-11.971c-4.793-45.829 23.479-89.643 67.227-104.181 51.811-17.218 107.969 10.926 125.189 62.743 8.411 25.312 6.365 52.371-5.77 76.175l-5.459 10.722zM487.986 262.58c51.562-6.88 103.836 2.866 149.654 27.891 5.178-15.599 5.207-32.35-0.067-48.221-13.36-40.204-56.931-62.039-97.128-48.681-30.16 10.021-50.831 37.964-52.459 69.011z" fill="#300604" /><path d="M408.721 711.669c-14.823 20.596-19.961 47.725-11.347 73.646 14.257 42.902 60.594 66.124 103.496 51.867 41.65-13.841 64.643-57.909 52.912-99.724-50.931 7.458-101.633-2.309-145.061-25.789z" fill="#ED8F27" /><path d="M504.372 847.714c-48.643 16.165-101.366-10.258-117.531-58.901-9.359-28.164-4.544-59.425 12.87-83.628l5.699-7.915 8.583 4.639c42.669 23.063 90.449 31.563 138.181 24.57l9.654-1.419 2.637 9.401c13.42 47.849-12.978 97.596-60.093 113.253zM412.71 726.201c-9.07 17.015-10.929 37.191-4.808 55.613 12.305 37.029 52.442 57.144 89.471 44.838 32.813-10.904 52.417-43.548 47.675-76.923-45.601 4.746-90.959-3.316-132.338-23.528zM651.535 398.697c-0.177-0.308-19.09-32.72-52.752-49.59-33.849-16.963-68.899-14.343-69.249-14.315l-1.849-21.922c1.671-0.143 41.378-3.265 80.954 16.569 39.78 19.936 61.12 56.804 62.009 58.363l-19.113 10.895zM679.453 402.033l11.865 24.29-19.767 9.656-11.865-24.29z" fill="#300604" /></svg>